<svg xmlns="http://www.w3.org/2000/svg" width="320" height="200" viewBox="0 0 320 200" fill="none">
  <rect width="320" height="200" fill="#FEFDFB"/>
  <rect x="0" y="0" width="320" height="26" fill="#0C3C32"/>
  <text x="14" y="18" font-family="'Playfair Display', Georgia, serif" font-size="9" letter-spacing="3" fill="#EDE7DA">ARIA STUDIO</text>
  <rect x="250" y="7" width="56" height="13" rx="6.5" fill="#C8A165"/>
  <text x="278" y="16.5" text-anchor="middle" font-family="'Inter', sans-serif" font-size="7" fill="#0C3C32" font-weight="700">BOOK</text>
  <text x="24" y="70" font-family="'Inter', sans-serif" font-size="8" letter-spacing="2" fill="#157A5E" font-weight="700">OUR SERVICES</text>
  <text x="24" y="100" font-family="Georgia, serif" font-size="23" font-weight="bold" fill="#16233A">We capture</text>
  <text x="24" y="128" font-family="'Segoe Script', 'Brush Script MT', cursive" font-size="22" font-style="italic" fill="#157A5E">beautiful moments</text>
  <rect x="24" y="146" width="104" height="26" rx="8" fill="#0E5A44"/>
  <text x="76" y="163" text-anchor="middle" font-family="'Inter', sans-serif" font-size="8.5" fill="#ffffff" font-weight="700">View Gallery</text>
  <rect x="150" y="150" width="30" height="22" rx="6" fill="#E8F2EE"/>
  <rect x="186" y="150" width="30" height="22" rx="6" fill="#E8F2EE"/>
  <g transform="rotate(-7 236 96)">
    <rect x="206" y="52" width="60" height="78" rx="6" fill="#ffffff" stroke="#ECE7DD"/>
    <rect x="212" y="58" width="48" height="52" rx="4" fill="#D9E6DF"/>
    <rect x="212" y="116" width="30" height="6" rx="3" fill="#0C3C32"/>
  </g>
  <g transform="rotate(6 288 118)">
    <rect x="262" y="82" width="52" height="70" rx="6" fill="#ffffff" stroke="#ECE7DD"/>
    <rect x="268" y="88" width="40" height="44" rx="4" fill="#EFE7D6"/>
    <rect x="268" y="138" width="26" height="6" rx="3" fill="#C8A165"/>
  </g>
</svg>
